<svg width="16" height="16" viewBox="0 0 16 16" fill="none" xmlns="http://www.w3.org/2000/svg">
<path fill-rule="evenodd" clip-rule="evenodd" d="M4.80005 4.79998V11.6C4.80005 11.9767 4.89898 12.2991 5.03778 12.515C5.17933 12.7352 5.32683 12.8 5.42862 12.8H10.5715C10.6733 12.8 10.8208 12.7352 10.9623 12.515C11.1011 12.2991 11.2 11.9767 11.2 11.6V4.79998H12V11.6C12 12.1069 11.8687 12.5845 11.6353 12.9476C11.4045 13.3065 11.0378 13.6 10.5715 13.6H5.42862C4.96234 13.6 4.59556 13.3065 4.36484 12.9476C4.13137 12.5845 4.00005 12.1069 4.00005 11.6V4.79998H4.80005Z" fill="white"/>
<path fill-rule="evenodd" clip-rule="evenodd" d="M6.00005 5.99998C6.22096 5.99998 6.40005 6.17906 6.40005 6.39998L6.40005 11.2C6.40005 11.4209 6.22096 11.6 6.00005 11.6C5.77913 11.6 5.60005 11.4209 5.60005 11.2L5.60005 6.39998C5.60005 6.17906 5.77913 5.99998 6.00005 5.99998Z" fill="white"/>
<path fill-rule="evenodd" clip-rule="evenodd" d="M8.00005 5.99998C8.22096 5.99998 8.40005 6.17906 8.40005 6.39998L8.40005 11.2C8.40005 11.4209 8.22096 11.6 8.00005 11.6C7.77913 11.6 7.60005 11.4209 7.60005 11.2L7.60005 6.39998C7.60005 6.17906 7.77913 5.99998 8.00005 5.99998Z" fill="white"/>
<path fill-rule="evenodd" clip-rule="evenodd" d="M10 5.99998C10.221 5.99998 10.4 6.17906 10.4 6.39998V11.2C10.4 11.4209 10.221 11.6 10 11.6C9.77913 11.6 9.60005 11.4209 9.60005 11.2V6.39998C9.60005 6.17906 9.77913 5.99998 10 5.99998Z" fill="white"/>
<path fill-rule="evenodd" clip-rule="evenodd" d="M12.4 3.19998H3.60005L3.60005 3.99998H12.4V3.19998ZM3.60005 2.39998C3.15822 2.39998 2.80005 2.75815 2.80005 3.19998V3.99998C2.80005 4.4418 3.15822 4.79998 3.60005 4.79998H12.4C12.8419 4.79998 13.2 4.4418 13.2 3.99998V3.19998C13.2 2.75815 12.8419 2.39998 12.4 2.39998H3.60005Z" fill="white"/>
<path d="M6.40005 2.39998C6.40005 1.95815 6.75822 1.59998 7.20005 1.59998H8.80005C9.24188 1.59998 9.60005 1.95815 9.60005 2.39998V3.19998H6.40005V2.39998Z" fill="white"/>
</svg>
