<svg width="50" height="50" viewBox="0 0 50 50" fill="none" xmlns="http://www.w3.org/2000/svg">
<path d="M1.5625 34.3126C2.42545 34.3126 3.125 35.0121 3.125 35.8751V43.6876C3.125 45.4135 4.52411 46.8126 6.25 46.8126H43.75C45.4759 46.8126 46.875 45.4135 46.875 43.6876V35.8751C46.875 35.0121 47.5746 34.3126 48.4375 34.3126C49.3004 34.3126 50 35.0121 50 35.8751V43.6876C50 47.1394 47.2018 49.9376 43.75 49.9376H6.25C2.79822 49.9376 0 47.1394 0 43.6876V35.8751C0 35.0121 0.699555 34.3126 1.5625 34.3126Z" fill="white"/>
<path d="M23.8951 40.4174C24.5053 41.0275 25.4947 41.0275 26.1049 40.4174L35.4799 31.0424C36.09 30.4322 36.09 29.4428 35.4799 28.8326C34.8697 28.2225 33.8803 28.2225 33.2701 28.8326L26.5625 35.5403V8.0625C26.5625 7.19956 25.8629 6.5 25 6.5C24.1371 6.5 23.4375 7.19956 23.4375 8.0625V35.5403L16.7299 28.8326C16.1197 28.2225 15.1303 28.2225 14.5201 28.8326C13.91 29.4428 13.91 30.4322 14.5201 31.0424L23.8951 40.4174Z" fill="white"/>
</svg>
