<svg width="16" height="16" viewBox="0 0 16 16" fill="none" xmlns="http://www.w3.org/2000/svg">
<path d="M7.76215 2C4.57856 2 2 4.57856 2 7.76215C2 10.3119 3.64942 12.4655 5.93987 13.229C6.22798 13.2794 6.33602 13.1065 6.33602 12.9553C6.33602 12.8184 6.32882 12.3647 6.32882 11.8821C4.88108 12.1486 4.50654 11.5292 4.39129 11.205C4.32647 11.0394 4.04556 10.528 3.80067 10.3911C3.599 10.2831 3.31089 10.0166 3.79347 10.0094C4.24724 10.0022 4.57136 10.4271 4.6794 10.6C5.19799 11.4715 6.0263 11.2266 6.35763 11.0754C6.40805 10.7008 6.5593 10.4488 6.72496 10.3047C5.44289 10.1606 4.10319 9.66366 4.10319 7.45964C4.10319 6.833 4.32647 6.31441 4.69381 5.91106C4.63618 5.76701 4.43451 5.17639 4.75143 4.38409C4.75143 4.38409 5.23401 4.23283 6.33602 4.97471C6.79699 4.84506 7.28677 4.78024 7.77656 4.78024C8.26634 4.78024 8.75612 4.84506 9.21709 4.97471C10.3191 4.22563 10.8017 4.38409 10.8017 4.38409C11.1186 5.17639 10.9169 5.76701 10.8593 5.91106C11.2266 6.31441 11.4499 6.8258 11.4499 7.45964C11.4499 9.67086 10.103 10.1606 8.82095 10.3047C9.02982 10.4848 9.20989 10.8305 9.20989 11.3707C9.20989 12.1414 9.20269 12.7608 9.20269 12.9553C9.20269 13.1065 9.31073 13.2866 9.59884 13.229C10.7427 12.8428 11.7367 12.1077 12.4409 11.127C13.1451 10.1463 13.524 8.96947 13.5243 7.76215C13.5243 4.57856 10.9457 2 7.76215 2Z" fill="white"/>
</svg>
