<svg width="50" height="50" viewBox="0 0 50 50" fill="none" xmlns="http://www.w3.org/2000/svg">
<path d="M36.6943 32.3246C39.1654 28.9603 40.625 24.8069 40.625 20.3125C40.625 9.09422 31.5308 0 20.3125 0C9.09422 0 0 9.09422 0 20.3125C0 31.5308 9.09422 40.625 20.3125 40.625C24.8081 40.625 28.9625 39.1646 32.3274 36.6922L32.3246 36.6943C32.4168 36.8192 32.5195 36.9389 32.6326 37.052L44.6653 49.0847C45.8857 50.3051 47.8643 50.3051 49.0847 49.0847C50.3051 47.8643 50.3051 45.8857 49.0847 44.6653L37.052 32.6326C36.9389 32.5195 36.8192 32.4168 36.6943 32.3246ZM37.5 20.3125C37.5 29.8049 29.8049 37.5 20.3125 37.5C10.8201 37.5 3.125 29.8049 3.125 20.3125C3.125 10.8201 10.8201 3.125 20.3125 3.125C29.8049 3.125 37.5 10.8201 37.5 20.3125Z" fill="white"/>
</svg>
