<svg width="50" height="50" viewBox="0 0 50 50" fill="none" xmlns="http://www.w3.org/2000/svg">
<path d="M10.9375 39.0625C10.9375 39.9254 10.2379 40.625 9.375 40.625C8.51205 40.625 7.8125 39.9254 7.8125 39.0625L7.8125 11.5847L4.22985 15.1674C3.61966 15.7775 2.63034 15.7775 2.02015 15.1674C1.40995 14.5572 1.40995 13.5678 2.02015 12.9576L8.26756 6.71024L8.29072 6.68744C8.43568 6.54764 8.60099 6.44134 8.7769 6.36856C8.96113 6.29216 9.16314 6.25 9.375 6.25C9.58686 6.25 9.78887 6.29216 9.9731 6.36856C10.1574 6.44481 10.33 6.55784 10.4799 6.70765L16.7299 12.9576C17.34 13.5678 17.34 14.5572 16.7299 15.1674C16.1197 15.7776 15.1303 15.7775 14.5201 15.1674L10.9375 11.5847L10.9375 39.0625Z" fill="white"/>
<path d="M21.875 10.9375C21.875 10.0746 22.5746 9.375 23.4375 9.375H45.3125C46.1754 9.375 46.875 10.0746 46.875 10.9375C46.875 11.8004 46.1754 12.5 45.3125 12.5H23.4375C22.5746 12.5 21.875 11.8004 21.875 10.9375Z" fill="white"/>
<path d="M23.4375 18.75C22.5746 18.75 21.875 19.4496 21.875 20.3125C21.875 21.1754 22.5746 21.875 23.4375 21.875H39.0625C39.9254 21.875 40.625 21.1754 40.625 20.3125C40.625 19.4496 39.9254 18.75 39.0625 18.75H23.4375Z" fill="white"/>
<path d="M23.4375 28.125C22.5746 28.125 21.875 28.8246 21.875 29.6875C21.875 30.5504 22.5746 31.25 23.4375 31.25H32.8125C33.6754 31.25 34.375 30.5504 34.375 29.6875C34.375 28.8246 33.6754 28.125 32.8125 28.125H23.4375Z" fill="white"/>
<path d="M23.4375 37.5C22.5746 37.5 21.875 38.1996 21.875 39.0625C21.875 39.9254 22.5746 40.625 23.4375 40.625H26.5625C27.4254 40.625 28.125 39.9254 28.125 39.0625C28.125 38.1996 27.4254 37.5 26.5625 37.5H23.4375Z" fill="white"/>
</svg>
