<svg width="16" height="16" viewBox="0 0 16 16" fill="none" xmlns="http://www.w3.org/2000/svg">
<path d="M8.75 2.00001L10.2354 2C10.3427 2.53626 10.6404 3.21279 11.1613 3.88396C11.6716 4.5416 12.3478 5.00001 13.25 5.00001V6.50001C11.935 6.50001 10.9468 5.88984 10.25 5.12855V10.25C10.25 12.3211 8.57107 14 6.5 14C4.42893 14 2.75 12.3211 2.75 10.25C2.75 8.17894 4.42893 6.50001 6.5 6.50001V8.00001C5.25736 8.00001 4.25 9.00737 4.25 10.25C4.25 11.4926 5.25736 12.5 6.5 12.5C7.74264 12.5 8.75 11.4926 8.75 10.25V2.00001Z" fill="white"/>
</svg>
