<svg width="16" height="16" viewBox="0 0 16 16" fill="none" xmlns="http://www.w3.org/2000/svg">
<path d="M8.05115 1.99872C8.05684 1.99873 8.06298 1.99874 8.06955 1.99876L8.14035 1.99898C8.96214 2.002 13.1273 2.03219 14.2503 2.3341C14.9387 2.51875 15.4808 3.0629 15.6648 3.75363C15.7661 4.13313 15.8367 4.63753 15.8859 5.15628L15.8954 5.26019C15.9032 5.34689 15.9103 5.43378 15.9169 5.52035L15.9246 5.62405C15.9904 6.53816 15.998 7.39356 15.9989 7.58072L15.999 7.60596C15.999 7.60803 15.999 7.61141 15.999 7.61141V7.62558C15.999 7.62558 15.999 7.62896 15.999 7.63103L15.9989 7.65628C15.998 7.8505 15.9898 8.76439 15.9169 9.7167L15.9087 9.8207L15.9 9.92482C15.8505 10.4974 15.7762 11.066 15.6648 11.4834C15.4808 12.1741 14.9387 12.7184 14.2503 12.9029C13.0898 13.215 8.68109 13.2368 8.06955 13.2384L8.02246 13.2385C8.0186 13.2385 8.0152 13.2385 8.01228 13.2385L7.99307 13.2385C7.99307 13.2385 7.98866 13.2385 7.98573 13.2385L7.92846 13.2384C7.61941 13.2376 6.34057 13.2316 5.0013 13.1856L4.83007 13.1795C4.8015 13.1785 4.77292 13.1774 4.74434 13.1763L4.57291 13.1696L4.40188 13.1623C3.29238 13.1136 2.23452 13.0338 1.74789 12.9029C1.05947 12.7184 0.517371 12.1741 0.333379 11.4834C0.221913 11.066 0.147602 10.4974 0.0980616 9.92482L0.0893244 9.8207L0.0811165 9.7167C0.0109033 8.79902 0.000711116 7.91702 -0.000768403 7.68029L-0.000945201 7.6464C-0.000957608 7.64335 -0.000967947 7.64054 -0.000976562 7.63798V7.59901C-0.000967947 7.59645 -0.000957608 7.59364 -0.000945201 7.59059L-0.000768403 7.55671C0.000571538 7.34232 0.00905783 6.59869 0.0628044 5.7786L0.0697612 5.67573C0.0709608 5.65853 0.0721808 5.6413 0.0734215 5.62405L0.0811165 5.52035C0.0877404 5.43378 0.0948985 5.34689 0.102634 5.26019L0.112196 5.15628C0.16142 4.63753 0.232046 4.13313 0.333379 3.75363C0.517371 3.0629 1.05947 2.51875 1.74789 2.3341C2.23452 2.20327 3.29238 2.12347 4.40188 2.07479L4.57291 2.06754L4.74434 2.06077C4.77292 2.05968 4.8015 2.05861 4.83007 2.05756L5.0013 2.05147C6.25508 2.00843 7.45591 2.00046 7.85767 1.99898L7.92846 1.99876C7.93504 1.99874 7.94117 1.99873 7.94686 1.99872H8.05115ZM6.39905 5.20991V10.0271L10.5558 7.61863L6.39905 5.20991Z" fill="white"/>
</svg>
