<svg width="200" height="200" viewBox="0 0 200 200" fill="none" xmlns="http://www.w3.org/2000/svg">
<path d="M139.775 0.100088C139.35 -0.374912 124.038 0.287588 110.713 14.7501C97.3875 29.2001 99.4375 45.7751 99.7375 46.2001C100.038 46.6251 118.738 47.2876 130.675 30.4751C142.613 13.6626 140.2 0.587588 139.775 0.100088ZM181.2 146.763C180.6 145.563 152.138 131.338 154.788 103.988C157.438 76.6251 175.725 69.1251 176.013 68.3126C176.3 67.5001 168.55 58.4376 160.338 53.8501C154.308 50.6157 147.634 48.7627 140.8 48.4251C139.45 48.3876 134.763 47.2376 125.125 49.8751C118.775 51.6126 104.463 57.2376 100.525 57.4626C96.575 57.6876 84.8251 50.9376 72.1875 49.1501C64.1 47.5876 55.5251 50.7876 49.3876 53.2501C43.2625 55.7001 31.6125 62.6751 23.4625 81.2126C15.3125 99.7376 19.575 129.088 22.625 138.213C25.675 147.325 30.4375 162.263 38.5375 173.163C45.7375 185.463 55.2876 194 59.2751 196.9C63.2626 199.8 74.5125 201.725 82.3125 197.738C88.5875 193.888 99.9125 191.675 104.388 191.838C108.85 192 117.65 193.763 126.663 198.575C133.8 201.038 140.55 200.013 147.313 197.263C154.075 194.5 163.863 184.025 175.288 162.788C179.625 152.913 181.6 147.575 181.2 146.763Z" fill="black"/>
<path d="M139.775 0.100088C139.35 -0.374912 124.038 0.287588 110.713 14.7501C97.3875 29.2001 99.4375 45.7751 99.7375 46.2001C100.038 46.6251 118.738 47.2876 130.675 30.4751C142.613 13.6626 140.2 0.587588 139.775 0.100088ZM181.2 146.763C180.6 145.563 152.138 131.338 154.788 103.988C157.438 76.6251 175.725 69.1251 176.013 68.3126C176.3 67.5001 168.55 58.4376 160.338 53.8501C154.308 50.6157 147.634 48.7627 140.8 48.4251C139.45 48.3876 134.763 47.2376 125.125 49.8751C118.775 51.6126 104.463 57.2376 100.525 57.4626C96.575 57.6876 84.8251 50.9376 72.1875 49.1501C64.1 47.5876 55.5251 50.7876 49.3876 53.2501C43.2625 55.7001 31.6125 62.6751 23.4625 81.2126C15.3125 99.7376 19.575 129.088 22.625 138.213C25.675 147.325 30.4375 162.263 38.5375 173.163C45.7375 185.463 55.2876 194 59.2751 196.9C63.2626 199.8 74.5125 201.725 82.3125 197.738C88.5875 193.888 99.9125 191.675 104.388 191.838C108.85 192 117.65 193.763 126.663 198.575C133.8 201.038 140.55 200.013 147.313 197.263C154.075 194.5 163.863 184.025 175.288 162.788C179.625 152.913 181.6 147.575 181.2 146.763Z" fill="black"/>
</svg>
