<svg width="200" height="200" viewBox="0 0 200 200" fill="none" xmlns="http://www.w3.org/2000/svg">
<g clip-path="url(#clip0_121_120)">
<path d="M89.8501 45.875C89.0835 45.9167 88.4335 46.375 88.1251 47.0333L88.1168 47.05C87.7835 47.7556 87.4668 48.1083 87.1668 48.1083C86.7946 48.1861 86.6085 48 86.6085 47.55C86.6085 46.6611 87.314 46.1028 88.7251 45.875H89.8501ZM99.5501 47.4333C99.2501 47.5111 98.8223 47.2694 98.2668 46.7083C97.9251 46.3417 97.4418 46.1083 96.9085 46.1083C96.6918 46.1083 96.4918 46.1417 96.3001 46.2083H96.3168C98.0946 45.3917 99.2862 45.4639 99.8918 46.425C99.9668 46.5333 100.008 46.6583 100.008 46.8C100.008 47.0917 99.8251 47.3333 99.5668 47.425H99.5585L99.5501 47.4333ZM60.3835 95.0917C60.3335 95.075 60.2835 95.0667 60.2251 95.0667C59.9918 95.0667 59.7918 95.2167 59.7168 95.4167C59.5335 95.8 59.3668 96.2667 59.2335 96.75L59.2168 96.8167C59.0585 97.3917 58.8501 97.8917 58.5835 98.3583L58.6001 98.325C58.2501 98.8667 57.8835 99.3417 57.4751 99.7833L57.4835 99.775C56.739 100.592 56.7001 101.036 57.3668 101.108C57.6668 101.186 58.1307 100.925 58.7585 100.325C59.3501 99.775 59.8251 99.1083 60.1418 98.3583L60.1585 98.325C60.2362 98.1028 60.3085 97.8417 60.3751 97.5417C60.4335 97.2833 60.5085 97.0667 60.6001 96.85L60.5918 96.875C60.6668 96.7333 60.7251 96.5667 60.7585 96.3917V96.375C60.7918 96.2417 60.8085 96.0917 60.8085 95.9333V95.6L60.6918 95.3167L60.3835 95.0917ZM155.8 135.158C155.8 133.825 153.753 132.269 149.658 130.492C149.958 129.375 150.239 128.353 150.5 127.425C150.742 126.6 150.942 125.617 151.05 124.608L151.058 124.525C151.17 123.519 151.281 122.719 151.392 122.125C151.458 121.683 151.5 121.167 151.5 120.65C151.5 120.283 151.483 119.925 151.442 119.567V119.608C151.364 118.531 151.325 117.806 151.325 117.433C151.25 116.517 151.108 115.683 150.908 114.867L150.933 114.975C150.672 113.708 150.522 112.947 150.483 112.692C150.445 112.436 150.258 111.508 149.925 109.908C149.592 108.308 149.386 107.322 149.308 106.95C148.233 102.567 146.425 98.725 143.992 95.3583L144.058 95.4583C141.992 92.075 139.3 89.275 136.125 87.15L136.025 87.0917C138.6 89.7083 140.733 92.775 142.3 96.15L142.383 96.35C146.642 102.808 149.175 110.733 149.175 119.25C149.175 122.125 148.883 124.933 148.333 127.642L148.375 127.375C147.867 130.042 145.567 132.025 142.8 132.042C140.495 132.342 139.064 131.653 138.508 129.975C137.925 127.575 137.592 124.817 137.592 121.983C137.592 121.508 137.6 121.042 137.617 120.575V120.642C137.617 120.567 137.617 120.475 137.617 120.375C137.617 116.233 137.15 112.208 136.258 108.333L136.325 108.692C135.625 105.567 134.875 102.992 133.992 100.475L134.15 100.992C133.5 99.025 132.767 97.3417 131.892 95.75L131.975 95.9083C131.303 94.7583 130.728 93.8472 130.25 93.175C129.808 92.55 129.325 92 128.8 91.5083L128.792 91.5L128 90.7167C127.05 86.275 125.858 82.4333 124.367 78.7417L124.542 79.225C123.658 76.8417 122.542 74.775 121.192 72.9L121.242 72.975C120.342 71.8917 119.475 70.6917 118.7 69.425L118.625 69.2917C117.492 67.5333 116.817 65.3917 116.817 63.0833C116.817 61.5583 117.108 60.1083 117.642 58.775L117.617 58.85C118.05 57.7833 118.308 56.5417 118.308 55.2417C118.308 54.5583 118.242 53.9 118.108 53.2583L118.117 53.325C117.706 52.0583 116.05 51.1306 113.15 50.5417C111.258 50.0333 109.608 49.35 108.075 48.4833L108.183 48.5417C107.058 47.8917 105.758 47.2917 104.392 46.8083L104.225 46.7583C103.631 46.6806 103.222 45.7139 103 43.8583C102.958 43.5 102.933 43.0833 102.933 42.6667C102.933 41.0333 103.283 39.4917 103.917 38.1L103.892 38.1667C104.467 36.45 106.025 35.2167 107.883 35.15C108.133 35.1083 108.433 35.0833 108.725 35.0833C110.95 35.0833 112.842 36.4833 113.575 38.45L113.583 38.4833C114.15 39.5833 114.483 40.875 114.483 42.25C114.483 43.2167 114.317 44.15 114.017 45.0167L114.033 44.9583C113.217 46.3694 113.145 47.3556 113.817 47.9167C114.489 48.4778 115.6 48.4944 117.15 47.9667C118.117 47.6667 118.6 46.3333 118.6 43.9667V39.8167C118.283 37.725 117.758 35.85 117.033 34.0667L117.092 34.2333C116.567 32.8833 115.767 31.7417 114.75 30.8333L114.742 30.825C113.992 30.1583 113.125 29.6 112.183 29.175L112.117 29.15C111.258 28.8 110.25 28.5083 109.2 28.325L109.108 28.3083C101.147 28.9028 97.8362 33.8861 99.1751 43.2583C99.1918 43.4167 99.2001 43.5917 99.2001 43.775C99.2001 44.1833 99.1501 44.5833 99.0501 44.9667L99.0585 44.9333C98.1835 44.2 97.0501 43.7583 95.8085 43.7583C95.7918 43.7583 95.7751 43.7583 95.7585 43.7583C95.2751 43.7083 94.7251 43.6833 94.1585 43.6833C93.4251 43.6833 92.7001 43.7333 91.9918 43.825L92.0751 43.8167C91.1474 43.9611 90.5723 43.775 90.3501 43.2583C90.3751 42.8417 90.3918 42.35 90.3918 41.8583C90.3918 38.725 89.7168 35.75 88.5085 33.075L88.5668 33.2083C87.7501 31.1167 85.8501 29.625 83.5668 29.4167H83.5418C83.5001 29.4167 83.4501 29.4167 83.4001 29.4167C81.3668 29.4167 79.6335 30.675 78.9251 32.45L78.9168 32.4833C77.9001 34.4167 77.2335 36.6917 77.0835 39.1V39.15C77.0751 39.3167 77.0751 39.5167 77.0751 39.7167C77.0751 40.975 77.2251 42.2083 77.5001 43.3833L77.4751 43.275C77.7751 44.85 78.2751 46.25 78.9668 47.5417L78.9251 47.4583C79.5585 48.6083 80.1335 49.1111 80.6501 48.9667C81.4418 48.7 82.0751 48.1417 82.4251 47.425L82.4335 47.4083C82.7335 46.7361 82.4724 46.4389 81.6501 46.5167C81.1279 46.5167 80.5529 45.9778 79.9251 44.9C79.3001 43.825 78.9168 42.5417 78.8668 41.175V41.1583C78.8501 40.9917 78.8418 40.8 78.8418 40.6C78.8418 39.275 79.2251 38.0417 79.8918 37L79.8751 37.025C80.6085 36.05 81.7751 35.425 83.0751 35.425C83.2835 35.425 83.4918 35.4417 83.6918 35.475H83.6668C85.0835 35.5667 86.2501 36.5083 86.6751 37.8L86.6835 37.825C87.3501 39.0917 87.7418 40.5917 87.7418 42.175V42.2583C87.7418 43.0917 87.6835 43.9167 87.5668 44.7167L87.5751 44.625C86.2085 45.4917 85.0585 46.5667 84.1418 47.825L84.1168 47.8583C83.3001 48.9417 82.2751 49.8167 81.1001 50.45L81.0501 50.475C79.6001 51.3306 78.839 51.7944 78.7668 51.8667C77.9418 52.6667 77.3418 53.6917 77.0501 54.8333L77.0418 54.875C76.9918 55.0333 76.9585 55.2083 76.9585 55.3917C76.9585 56.0417 77.3335 56.6 77.8751 56.8667L77.8835 56.875C78.9501 57.4917 79.8751 58.2083 80.6751 59.0417C81.3085 59.6833 81.9001 60.375 82.4251 61.1083L82.4585 61.1583C82.9835 61.825 83.6835 62.325 84.4918 62.6L84.5251 62.6083C85.7001 63.05 87.0585 63.3167 88.4751 63.3333H88.4835C88.7335 63.3417 89.0335 63.3417 89.3251 63.3417C93.0918 63.3417 96.7168 62.725 100.1 61.5917L99.8585 61.6583C100.003 61.5806 100.858 61.3194 102.425 60.875C103.992 60.4306 105.275 60.0389 106.275 59.7C107.558 59.25 108.642 58.7583 109.683 58.1917L109.575 58.25C110.542 57.8167 111.333 57.15 111.908 56.3167L111.917 56.3C112.589 55.2611 113.333 54.9639 114.15 55.4083C114.508 55.6167 114.767 55.95 114.875 56.3417C114.892 56.4333 114.908 56.5583 114.908 56.6667C114.908 57.05 114.767 57.4083 114.542 57.6833C114.083 58.2333 113.45 58.6167 112.717 58.7417H112.7C110.1 59.5833 108.008 60.4 105.975 61.3083L106.392 61.1417C103.675 62.2917 101.981 63.0167 101.308 63.3167C99.0668 64.3917 96.4501 65.2833 93.7168 65.8417L93.4918 65.8833C92.3501 66.0333 91.0335 66.125 89.6918 66.125C87.9085 66.125 86.1585 65.9667 84.4585 65.675L84.6418 65.7C83.8973 65.5556 83.5612 65.6278 83.6335 65.9167C84.1585 66.7417 84.7835 67.4417 85.5168 68.025L85.5335 68.0417C87.3168 69.5833 89.6585 70.525 92.2168 70.525C92.5001 70.525 92.7751 70.5167 93.0501 70.4917H93.0168C94.4835 70.3833 95.8418 70.1083 97.1335 69.675L97.0168 69.7083C98.6085 69.2083 99.9335 68.675 101.208 68.0667L101.017 68.15C102.283 67.5556 103.531 66.9056 104.758 66.2C105.986 65.4944 107.097 64.8611 108.092 64.3C108.833 63.875 109.733 63.425 110.658 63.0333L110.825 62.9667C111.225 62.7583 111.7 62.6333 112.208 62.6333C112.408 62.6333 112.608 62.65 112.8 62.6917H112.783C113.3 62.8917 113.667 63.3583 113.733 63.9083C113.725 64.0917 113.683 64.2667 113.617 64.425C113.508 64.65 113.358 64.8333 113.175 64.975C112.975 65.1417 112.758 65.3083 112.533 65.4583L112.508 65.475C112.286 65.6194 111.97 65.8056 111.558 66.0333C111.147 66.2611 110.811 66.4278 110.55 66.5333C110.289 66.6389 109.917 66.825 109.433 67.0917C109.142 67.2667 108.792 67.4333 108.425 67.575L108.375 67.5917C105.508 69.1333 103.042 70.7583 100.742 72.5833L100.842 72.5C98.6751 74.225 96.2501 75.825 93.6751 77.175L93.4251 77.3C92.6085 77.775 91.6335 78.0583 90.5918 78.0583C89.6335 78.0583 88.7251 77.825 87.9335 77.4L87.9668 77.4167C85.1335 75.1833 82.7835 72.4833 81.0085 69.4L80.9335 69.2667C79.3001 66.9611 78.3723 66.1444 78.1501 66.8167C78.0751 67.1 78.0335 67.425 78.0335 67.7667V67.9417C77.9418 70.2583 77.3335 72.4083 76.3251 74.325L76.3668 74.2417C75.2501 76.5861 74.1529 78.65 73.0751 80.4333C71.9751 82.3 71.1585 84.475 70.7418 86.7917L70.7251 86.9083C70.6001 87.4917 70.5251 88.1583 70.5251 88.8417C70.5251 90.7333 71.0751 92.5 72.0335 93.9833L72.0085 93.9417C70.2973 94.3861 67.9724 97.7361 65.0335 103.992C62.6585 108.542 60.8085 113.808 59.7585 119.367L59.7001 119.725C59.5557 121.058 59.5001 123.625 59.5335 127.425C59.5918 127.958 59.6335 128.583 59.6335 129.217C59.6335 130.925 59.3751 132.575 58.8918 134.133L58.9251 134.017C58.3307 135.794 57.2529 135.906 55.6918 134.35C53.2085 131.625 51.6918 127.983 51.6918 123.983C51.6918 123.942 51.6918 123.892 51.6918 123.85C51.6585 123.383 51.6335 122.85 51.6335 122.3C51.6335 120.642 51.8168 119.025 52.1668 117.467L52.1418 117.617C52.4418 116.206 52.4029 115.539 52.0251 115.617C51.8251 115.75 51.6668 115.942 51.5835 116.167V116.175C50.4918 118.583 49.8501 121.4 49.8501 124.358C49.8501 128.175 50.9085 131.742 52.7418 134.792L52.6918 134.7C53.3835 135.967 54.3251 137.008 55.4501 137.808L55.4751 137.825C56.964 139.014 57.8529 139.758 58.1418 140.058C61.6918 143.592 65.4835 146.9 69.4668 149.95L69.7418 150.158C75.9918 155.181 79.4529 158.028 80.1251 158.7C81.2668 159.767 82.0085 161.258 82.0751 162.925V162.942C82.0835 163.042 82.0835 163.167 82.0835 163.292C82.0835 167.042 79.1335 170.1 75.4251 170.275H75.4085C76.5168 172.2 77.5835 173.825 78.7418 175.375L78.6418 175.242C79.9501 176.958 81.0168 178.95 81.7251 181.1L81.7668 181.242C82.2751 183.317 82.5585 185.692 82.5585 188.142C82.5585 188.483 82.5501 188.825 82.5418 189.158V189.108C85.964 187.331 86.2251 183.908 83.3251 178.842C82.9751 178.158 82.5835 177.575 82.1418 177.042L82.1585 177.058C81.6751 176.464 81.3223 176.019 81.1001 175.725C80.8779 175.431 80.8057 175.208 80.8835 175.058C81.2501 174.583 81.7418 174.217 82.3168 174.008L82.3418 174C82.6001 173.875 82.9085 173.808 83.2335 173.808C83.7418 173.808 84.2168 173.983 84.5835 174.283C88.0057 178.15 94.1807 179.483 103.108 178.283H103.158C111.158 178.283 118.275 174.5 122.817 168.633L122.858 168.575C124.57 165.747 125.833 164.636 126.65 165.242C127.539 165.686 127.911 167.619 127.767 171.042C127.25 174.875 126.35 178.342 125.092 181.625L125.2 181.308C124.742 182.258 124.475 183.383 124.475 184.558C124.475 184.883 124.492 185.208 124.533 185.533V185.492C124.756 186.569 125.645 187.144 127.2 187.217C127.422 185.806 127.961 182.942 128.817 178.625C129.458 175.817 129.992 172.383 130.3 168.892L130.325 168.575C130.333 168.342 130.333 168.067 130.333 167.792C130.333 165.167 130.067 162.608 129.558 160.133L129.6 160.375C129.058 157.367 128.758 153.9 128.758 150.367C128.758 150.075 128.758 149.792 128.767 149.508V149.55C128.767 149.442 128.758 149.317 128.758 149.183C128.758 146.342 129.725 143.725 131.35 141.65L131.333 141.675C132.608 140.417 134.358 139.633 136.292 139.633C136.55 139.633 136.808 139.65 137.058 139.675H137.025C137.025 139.642 137.025 139.608 137.025 139.575C137.025 136.975 138.592 134.75 140.842 133.783L140.883 133.767C142.625 132.925 144.667 132.425 146.833 132.425C147.592 132.425 148.333 132.483 149.058 132.6L148.975 132.592C151.55 132.808 153.883 133.717 155.825 135.125L155.783 135.1L155.8 135.158ZM85.7168 42.8583C85.7918 42.5 85.8418 42.0833 85.8418 41.6583C85.8418 40.8917 85.6918 40.1583 85.4251 39.4833L85.4418 39.525C85.0307 38.5583 84.6029 38 84.1585 37.85C83.4862 37.7056 83.1501 37.9667 83.1501 38.6333C83.2335 38.9333 83.4335 39.1667 83.7001 39.3H83.7085C84.4529 39.3 84.714 39.8583 84.4918 40.975C84.2696 42.4639 84.5668 43.2083 85.3835 43.2083C85.4001 43.2083 85.4168 43.2167 85.4335 43.2167C85.5918 43.2167 85.7251 43.0833 85.7251 42.925C85.7251 42.9083 85.7251 42.875 85.7168 42.8583ZM132.475 64.8583C132.375 64.3417 132.117 63.9 131.75 63.575C131.342 63.2833 130.85 63.0917 130.317 63.0167H130.3C129.692 62.9167 129.142 62.7 128.667 62.3917L128.683 62.4C128.275 62.15 127.925 61.85 127.625 61.5083L127.617 61.5C127.283 61.1278 127.022 60.8306 126.833 60.6083L126.217 59.8833C126.083 59.7167 125.942 59.5667 125.775 59.4417H125.767C125.689 59.4083 125.539 59.4639 125.317 59.6083C124.278 60.7972 124.539 62.4139 126.1 64.4583C127.117 66.0667 128.617 67.3 130.392 67.95L130.45 67.9667C130.5 67.975 130.567 67.975 130.625 67.975C131.258 67.975 131.8 67.6083 132.067 67.0833L132.075 67.075C132.358 66.6167 132.533 66.0583 132.533 65.4583C132.533 65.2333 132.508 65.025 132.467 64.8167V64.8333L132.475 64.8583ZM112.617 41.0917C112.617 41.0833 112.617 41.0667 112.617 41.0583C112.617 39.6083 111.917 38.325 110.842 37.525L110.833 37.5167C110.389 37.2167 110.053 37.1056 109.825 37.1833C109.775 37.175 109.725 37.175 109.667 37.175C109.392 37.175 109.133 37.2583 108.925 37.4083C108.858 37.4583 108.817 37.5417 108.817 37.6333C108.817 37.725 108.858 37.8083 108.925 37.8583C109.075 38.0083 109.267 38.125 109.475 38.1917C110.514 38.4917 111.189 39.6444 111.483 41.65C111.483 41.8722 111.781 41.8 112.375 41.4333C112.531 41.2722 112.608 41.1611 112.608 41.1L112.617 41.0917ZM118.617 15.0917C118.583 14.8667 118.483 14.675 118.333 14.5333C118.05 14.2333 117.733 13.975 117.383 13.775L117.367 13.7667C116.883 13.4667 116.531 13.2444 116.308 13.1C115.658 12.2667 114.733 11.6667 113.675 11.4333L113.642 11.425H113.633C113.067 11.425 112.575 11.7667 112.358 12.2583V12.2667C112.25 12.5333 112.183 12.85 112.183 13.175C112.183 13.3667 112.208 13.5583 112.25 13.7417V13.725C112.3 13.9083 112.325 14.1167 112.325 14.325C112.325 14.6083 112.275 14.875 112.192 15.1333L112.2 15.1167C112.042 15.5667 111.817 15.9583 111.533 16.2917V16.2833C111.283 16.575 111.067 16.9083 110.883 17.2583L110.867 17.2917C110.789 17.4806 110.9 17.7972 111.2 18.2417C111.317 18.35 111.475 18.4167 111.65 18.4167C111.825 18.4167 111.975 18.35 112.1 18.2417C112.4 18.0194 112.808 17.6833 113.325 17.2333C113.8 16.8167 114.358 16.475 114.958 16.2417L115 16.225C115.225 16.1417 115.483 16.1 115.75 16.1C115.842 16.1 115.933 16.1083 116.017 16.1167H116.008H116.058C116.633 16.1167 117.192 16.0333 117.717 15.8833L117.675 15.8917C118.117 15.7917 118.475 15.5 118.658 15.1083L118.617 15.0917ZM181.667 164.75C182.992 165.517 184.133 166.417 185.117 167.475L185.125 167.483C185.817 168.183 186.3 169.1 186.458 170.125V170.15C186.475 170.317 186.483 170.517 186.483 170.717C186.483 171.417 186.375 172.083 186.167 172.708L186.183 172.667C185.817 173.65 185.225 174.475 184.467 175.117L184.458 175.125C183.667 175.858 182.808 176.567 181.925 177.242L181.842 177.3C180.883 177.992 179.8 178.683 178.658 179.292L178.508 179.367C177.131 180.111 175.958 180.725 174.992 181.208C174.025 181.692 172.833 182.267 171.417 182.933C170 183.6 168.995 184.083 168.4 184.383C164.767 186.3 161.65 188.375 158.75 190.717L158.858 190.633C155.742 193.025 153 195.358 150.375 197.825L150.433 197.775C148.425 199.142 145.95 199.958 143.283 199.958C143.133 199.958 142.975 199.958 142.825 199.95H142.85C142.283 200.008 141.625 200.042 140.958 200.042C138.05 200.042 135.283 199.408 132.792 198.283L132.917 198.333C131.608 197.692 130.508 196.808 129.633 195.733L129.617 195.717C128.925 194.892 128.317 193.95 127.817 192.95L127.775 192.867C127.225 191.892 126.375 191.133 125.358 190.708L125.325 190.7C123.817 190.033 122.058 189.642 120.208 189.642C120.167 189.642 120.117 189.642 120.075 189.642C116.797 189.564 111.97 189.525 105.575 189.525C104.164 189.525 102.045 189.581 99.2168 189.692C96.389 189.803 94.2307 189.897 92.7418 189.975C89.5418 190.008 86.5001 190.617 83.6918 191.708L83.8668 191.65C81.5668 192.467 79.5751 193.6 77.8251 195.017L77.8668 194.983C76.4668 196.208 74.8668 197.267 73.1418 198.108L73.0168 198.167C71.4085 198.983 69.5168 199.467 67.5085 199.467C67.3335 199.467 67.1668 199.467 66.9918 199.458H67.0168C62.4085 198.767 58.2585 197.558 54.3668 195.883L54.7001 196.008C50.2251 194.242 44.7751 192.592 39.1668 191.35L38.4085 191.208C36.9974 190.908 35.1001 190.556 32.7168 190.15C30.3335 189.744 28.4724 189.408 27.1335 189.142C25.7946 188.875 24.3251 188.522 22.7251 188.083C21.3085 187.725 20.0585 187.175 18.9418 186.433L18.9918 186.458C18.1751 185.917 17.5335 185.183 17.1085 184.317L17.0918 184.283C16.8585 183.467 16.7168 182.533 16.7168 181.558C16.7168 179.842 17.1418 178.225 17.8918 176.808L17.8668 176.867C18.6501 175.142 19.3335 173.117 19.8251 171.008L19.8668 170.783C19.8751 170.625 19.8751 170.442 19.8751 170.258C19.8751 168.858 19.7085 167.5 19.4001 166.2L19.4251 166.317C19.0529 164.539 18.6807 162.958 18.3085 161.575C17.9918 160.458 17.8085 159.175 17.8085 157.842C17.8085 157.725 17.8085 157.6 17.8168 157.483V157.5C17.8168 157.45 17.8168 157.383 17.8168 157.325C17.8168 156.217 18.2668 155.217 18.9918 154.492C20.6335 153.5 22.6168 152.917 24.7418 152.917C24.9585 152.917 25.1751 152.925 25.3835 152.933H25.3501H25.6751C27.9668 152.933 30.1501 152.442 32.1168 151.558L32.0168 151.6C33.8585 150.583 35.4085 149.283 36.6585 147.725L36.6835 147.692C37.5335 146.258 38.0418 144.533 38.0418 142.692C38.0418 142.45 38.0335 142.208 38.0168 141.967V142C38.5418 143.133 38.8501 144.467 38.8501 145.867C38.8501 149.183 37.1418 152.092 34.5501 153.775L34.5168 153.8C32.4835 154.958 30.0501 155.642 27.4501 155.642C26.6751 155.642 25.9168 155.583 25.1751 155.467L25.2585 155.475C22.7307 155.253 21.1307 155.625 20.4585 156.592C19.4918 157.708 19.6779 159.828 21.0168 162.95C21.3168 163.75 21.6168 164.408 21.9585 165.042L21.9168 164.95C22.3612 165.839 22.6779 166.506 22.8668 166.95C23.0751 167.492 23.2501 168.133 23.3585 168.792L23.3668 168.85C23.4585 169.342 23.5168 169.908 23.5168 170.492C23.5168 170.775 23.5001 171.058 23.4751 171.342V171.308C23.1918 173.358 22.5168 175.2 21.5418 176.842L21.5751 176.775C20.6001 178.275 20.0168 180.117 20.0168 182.092V182.108C20.239 183.375 21.614 184.342 24.1418 185.008C25.6307 185.453 28.7751 186.142 33.5751 187.075C38.3751 188.008 42.0779 188.769 44.6835 189.358C46.4612 189.803 49.214 190.619 52.9418 191.808C56.6696 192.997 59.739 193.853 62.1501 194.375C63.4751 194.717 65.0001 194.908 66.5668 194.908C67.1918 194.908 67.8168 194.875 68.4251 194.817L68.3501 194.825C71.1501 194.6 73.6418 193.45 75.5585 191.692L75.5501 191.7C76.9918 190.342 77.9418 188.483 78.1168 186.4V186.367C78.1251 186.158 78.1251 185.908 78.1251 185.658C78.1251 183.583 77.8168 181.583 77.2335 179.692L77.2751 179.833C76.6918 177.608 75.9668 175.675 75.0751 173.85L75.1585 174.033C74.414 172.583 73.6696 171.225 72.9251 169.958C66.7251 159.7 60.5001 150.9 53.7251 142.567L54.0668 143C49.0112 137.494 44.8057 136.006 41.4501 138.533C40.6335 139.206 40.0751 138.647 39.7751 136.858C39.6085 135.933 39.5168 134.867 39.5168 133.775C39.5168 133.367 39.5335 132.967 39.5585 132.558V132.617C39.6001 130.525 40.0085 128.533 40.7085 126.7L40.6668 126.817C41.4751 124.792 42.3751 123.067 43.4085 121.442L43.3335 121.567C44.2168 120.233 45.0335 118.7 45.7168 117.092L45.7918 116.9C46.3862 115.333 47.3724 112.656 48.7501 108.867C50.1279 105.078 51.2251 102.175 52.0418 100.158C53.1751 97.4417 54.2918 95.2 55.5335 93.05L55.3751 93.3583C56.6168 91.0667 58.0585 89.1 59.7418 87.35L59.7335 87.3583C65.2085 81.1083 69.8418 73.9333 73.3585 66.1417L73.5751 65.6C72.6862 57.2667 72.0918 45.7361 71.7918 31.0083C71.7585 30.35 71.7335 29.5833 71.7335 28.8167C71.7335 23.525 72.7335 18.4667 74.5585 13.825L74.4585 14.1C76.9835 8.925 81.1001 4.85 86.1668 2.45L86.3168 2.38334C89.4001 0.883337 93.0168 0.0166702 96.8418 0.0166702C97.2251 0.0166702 97.6001 0.0250036 97.9835 0.0416702H97.9335C98.1418 0.0416702 98.3918 0.0333369 98.6418 0.0333369C102.6 0.0333369 106.433 0.583337 110.058 1.61667L109.767 1.54167C113.558 2.51667 116.875 4.11667 119.783 6.23334L119.7 6.175C124.192 9.675 127.683 14.25 129.833 19.5167L129.908 19.7333C132.008 24.0917 133.233 29.2167 133.233 34.625C133.233 35.175 133.217 35.725 133.192 36.2667V36.1917C133.175 36.825 133.158 37.5667 133.158 38.3167C133.158 46.0833 134.392 53.5667 136.667 60.5833L136.525 60.075C139.683 69.6 144.775 77.75 151.367 84.4083L151.358 84.4C155.908 89.575 159.65 95.6 162.317 102.175L162.467 102.6C165.275 108.725 167.583 115.875 169.033 123.325L169.133 123.933C169.533 126.042 169.767 128.467 169.767 130.95C169.767 131.8 169.742 132.642 169.683 133.475L169.692 133.358C169.575 135.617 169.1 137.725 168.308 139.683L168.358 139.55C167.686 141.039 166.942 141.856 166.125 142C165.025 142.417 164.125 143.158 163.517 144.1L163.5 144.125C162.495 145.392 161.489 146.711 160.483 148.083C159.267 149.625 157.758 150.883 156.042 151.783L155.967 151.817C154.175 152.808 152.042 153.392 149.775 153.392C149.558 153.392 149.342 153.383 149.133 153.375H149.167C147.892 153.317 146.692 153.117 145.542 152.792L145.65 152.817C144.658 152.533 143.808 152.008 143.142 151.308C142.625 150.775 142.133 150.217 141.667 149.625L141.633 149.583C141.175 148.925 140.75 148.175 140.383 147.392L140.342 147.3C139.82 146.222 139.483 145.497 139.333 145.125C137.7 142.375 136.175 141.264 134.758 141.792C133.342 142.319 132.3 144.142 131.633 147.258C131.417 148.425 131.292 149.758 131.292 151.125C131.292 153.617 131.7 156.008 132.458 158.242L132.408 158.083C133.158 161.433 133.583 165.283 133.583 169.233C133.583 172.992 133.2 176.65 132.458 180.192L132.517 179.842C132.258 180.842 132.117 182 132.117 183.183C132.117 186.117 133.017 188.85 134.55 191.1L134.517 191.05C136.208 193.317 138.883 194.758 141.892 194.758C142.158 194.758 142.433 194.75 142.692 194.725H142.658C146.325 194.458 149.6 193 152.167 190.75L152.15 190.767C155.117 188.175 158.383 185.733 161.825 183.542L162.15 183.35C165.392 181.642 169.217 180.033 173.183 178.758L173.7 178.617C176.975 177.633 179.825 176.242 182.4 174.475L182.292 174.542C184.07 173.164 184.758 171.881 184.358 170.692C183.8 169.325 182.825 168.233 181.6 167.525L181.567 167.508C179.917 166.492 178.017 165.6 176.008 164.942L175.817 164.883C173.275 163.975 171.283 162.05 170.308 159.608L170.283 159.55C169.225 157.333 168.6 154.725 168.6 151.983C168.6 151.8 168.6 151.617 168.608 151.433V151.458C168.592 151.283 168.583 151.083 168.583 150.875C168.583 149.058 169.242 147.392 170.342 146.108L170.333 146.117C170.383 148.383 170.708 150.55 171.267 152.617L171.225 152.425C171.675 154.167 172.225 155.667 172.908 157.1L172.842 156.95C173.475 158.167 174.233 159.217 175.133 160.133C175.842 160.908 176.608 161.6 177.433 162.225L177.475 162.258C178.07 162.669 178.87 163.153 179.875 163.708C180.881 164.264 181.486 164.611 181.692 164.75H181.667Z" fill="black"/>
</g>
<defs>
<clipPath id="clip0_121_120">
<rect width="200" height="200" fill="black"/>
</clipPath>
</defs>
</svg>
