<svg width="50" height="50" viewBox="0 0 50 50" fill="none" xmlns="http://www.w3.org/2000/svg">
<path d="M38.8626 12.4886C36.2689 11.3174 33.532 10.4815 30.7202 10.0017C30.6947 9.99749 30.6685 10.0011 30.6452 10.0121C30.6219 10.0232 30.6027 10.041 30.5902 10.0632C30.2377 10.6782 29.8477 11.4825 29.5752 12.1122C26.5442 11.6596 23.4612 11.6596 20.4303 12.1122C20.1263 11.4107 19.7824 10.7266 19.4003 10.0632C19.3874 10.0412 19.3682 10.0236 19.345 10.0126C19.3218 10.0017 19.2957 9.99785 19.2703 10.0017C16.458 10.4795 13.7208 11.3155 11.1279 12.4886C11.1057 12.4969 11.0871 12.5126 11.0754 12.5329C5.89041 20.1558 4.46793 27.5919 5.16542 34.9344C5.16792 34.9689 5.19042 35.0033 5.21792 35.0255C8.23722 37.226 11.6143 38.9062 15.2053 39.9943C15.2307 40.0022 15.2579 40.0019 15.2831 39.9935C15.3083 39.9851 15.3301 39.969 15.3453 39.9476C16.1153 38.9144 16.8003 37.8247 17.3903 36.6785C17.3984 36.6628 17.4031 36.6456 17.4039 36.6281C17.4047 36.6105 17.4017 36.593 17.3951 36.5767C17.3885 36.5604 17.3784 36.5457 17.3655 36.5335C17.3526 36.5214 17.3372 36.5121 17.3203 36.5063C16.2432 36.099 15.2001 35.6096 14.2003 35.0427C14.1821 35.0323 14.1667 35.0176 14.1556 34.9999C14.1446 34.9823 14.1381 34.9622 14.1369 34.9415C14.1356 34.9207 14.1396 34.9 14.1485 34.8812C14.1574 34.8624 14.1709 34.846 14.1878 34.8336C14.3978 34.6786 14.6078 34.5163 14.8078 34.3539C14.8255 34.34 14.8467 34.331 14.8691 34.3279C14.8916 34.3249 14.9145 34.3279 14.9353 34.3367C21.4827 37.2787 28.5702 37.2787 35.0376 34.3367C35.0591 34.3272 35.0829 34.3238 35.1063 34.3269C35.1297 34.3299 35.1518 34.3393 35.1701 34.3539C35.3701 34.5163 35.5801 34.6786 35.7901 34.8336C35.8071 34.8458 35.8208 34.862 35.8299 34.8807C35.839 34.8994 35.8432 34.9201 35.8422 34.9408C35.8412 34.9615 35.8351 34.9816 35.8242 34.9994C35.8134 35.0172 35.7982 35.0321 35.7801 35.0427C34.7826 35.6147 33.7381 36.1035 32.6576 36.5038C32.6409 36.5101 32.6257 36.5199 32.6131 36.5324C32.6004 36.5449 32.5906 36.5598 32.5842 36.5763C32.5779 36.5928 32.5751 36.6104 32.5761 36.628C32.5771 36.6456 32.5819 36.6628 32.5901 36.6785C33.1901 37.8223 33.8776 38.9144 34.6326 39.9476C34.6479 39.969 34.6697 39.9851 34.6948 39.9935C34.72 40.0019 34.7473 40.0022 34.7726 39.9943C38.3696 38.9096 41.7522 37.2292 44.775 35.0255C44.79 35.015 44.8025 35.0015 44.8116 34.9857C44.8207 34.97 44.8261 34.9525 44.8275 34.9344C45.6625 26.4456 43.43 19.0711 38.9126 12.5353C38.908 12.5245 38.9012 12.5148 38.8926 12.5067C38.884 12.4987 38.8738 12.4925 38.8626 12.4886V12.4886ZM18.3678 30.4625C16.3953 30.4625 14.7728 28.6816 14.7728 26.4973C14.7728 24.3105 16.3653 22.5296 18.3678 22.5296C20.3853 22.5296 21.9927 24.3252 21.9627 26.4973C21.9627 28.6816 20.3703 30.4625 18.3678 30.4625ZM31.6576 30.4625C29.6877 30.4625 28.0627 28.6816 28.0627 26.4973C28.0627 24.3105 29.6552 22.5296 31.6576 22.5296C33.6751 22.5296 35.2851 24.3252 35.2526 26.4973C35.2526 28.6816 33.6751 30.4625 31.6576 30.4625Z" fill="white"/>
</svg>
